<!--?xml version="1.0" encoding="utf-8"?-->
<!-- Generator: Adobe Illustrator 18.1.1, SVG Export Plug-In . SVG Version: 6.00 Build 0)  -->

<svg version="1.1" id="_x32_" xmlns="http://www.w3.org/2000/svg" xmlns:xlink="http://www.w3.org/1999/xlink" x="0px" y="0px" viewBox="0 0 512 512" style="width: 256px; height: 256px; opacity: 1;" xml:space="preserve">
<style type="text/css">
	.st0{fill:#4B4B4B;}
</style>
<g>
	<path class="st0" d="M289.665,416.514l172.432-205.498c10.946-13.045,9.242-32.467-3.794-43.42l-59.451-49.88L291.84,411.732
		C291.233,413.402,290.44,414.946,289.665,416.514z M401.635,164.214l21.841,18.324c7.471,6.274,8.45,17.397,2.175,24.843
		l-18.332,21.858l-5.144-4.31l11.636-13.889l-2.614-30.046l-13.88-11.637L401.635,164.214z" style="fill: rgb(75, 75, 75);"></path>
	<path class="st0" d="M231.36,406.268h-44.625l47.594,17.321c15.988,5.818,33.664-2.42,39.482-18.408l107.957-296.622
		c5.818-15.997-2.412-33.672-18.417-39.491l-82.068-29.869c0.016,0.481,0.084,0.953,0.084,1.434V356.27
		C281.367,383.838,258.936,406.268,231.36,406.268z M308.942,85.258l26.799,9.765c9.159,3.331,13.88,13.442,10.525,22.592
		l-9.732,26.808l-6.324-2.294l6.19-17.034l-12.733-27.33l-17.017-6.19L308.942,85.258z" style="fill: rgb(75, 75, 75);"></path>
	<path class="st0" d="M507.871,298.135l-38.234-66.239L304.355,428.843c-3.762,4.495-9.192,6.848-14.707,6.848
		c-3.609,0-7.236-1.004-10.456-3.095c-0.371-0.245-0.674-0.557-1.028-0.835c-7.978,7.142-18.131,11.73-29.094,12.674l1.636,2.826
		l-24.709,14.268c-8.432,4.857-19.21,1.974-24.083-6.451l-14.252-24.708l3.558-2.049l-11.047-4.014
		c-7.674-2.8-12.615-10.094-12.599-18.038h-32.921l46.498,80.508c8.5,14.749,27.339,19.783,42.079,11.283l273.357-157.827
		C511.328,331.723,516.371,312.884,507.871,298.135z M463.582,324.361l-24.691,14.259l-3.356-5.801l15.668-9.074l7.826-29.127
		l-9.074-15.685l5.818-3.364l14.269,24.699C474.899,308.718,472.015,319.495,463.582,324.361z" style="fill: rgb(75, 75, 75);"></path>
	<path class="st0" d="M262.174,356.27V40.633c0-17.026-13.779-30.822-30.814-30.822H30.83C13.813,9.81,0,23.607,0,40.633V356.27
		c0,17.026,13.813,30.813,30.83,30.813h200.53C248.395,387.083,262.174,373.296,262.174,356.27z M185.773,43.643h28.52
		c9.748,0.009,17.641,7.901,17.624,17.642l0.016,28.52h-6.712l-0.018-18.122l-21.317-21.318h-18.114V43.643z M30.273,61.284
		c0-9.74,7.893-17.633,17.624-17.633h28.52v6.712H58.304L36.986,71.698v18.106h-6.713V61.284z M47.881,353.252
		c-9.715-0.008-17.624-7.893-17.608-17.633L30.257,307.1h6.712v18.113l21.335,21.326h18.114v6.713H47.881z M177.391,232.621
		c-2.9-3.424-6.392-5.524-10.001-6.789c-1.669,2.589-3.575,5.026-5.7,7.235c10.929,16.899-2.496,32.315,13.914,42.67
		 M214.293,353.243h-28.52v-6.704h18.114l21.317-21.335V307.1h6.713v28.519C231.918,345.358,224.042,353.243,214.293,353.243z" style="fill: rgb(75, 75, 75);"></path>
	<text x="128" y="220" text-anchor="middle" font-size="64" font-family="Arial, sans-serif" fill="#E11D48" font-weight="bold">TALK</text>
</g>
</svg>
