<!--?xml version="1.0" encoding="utf-8"?-->
<!-- Generator: Adobe Illustrator 18.1.1, SVG Export Plug-In . SVG Version: 6.00 Build 0)  -->

<svg version="1.1" id="_x32_" xmlns="http://www.w3.org/2000/svg" xmlns:xlink="http://www.w3.org/1999/xlink" viewBox="0 10 262 370" xml:space="preserve">
<style type="text/css">
	.st0{fill:#4B4B4B;}
</style>
<g>
	<path class="st0" d="M262.174,356.27V40.633c0-17.026-13.779-30.822-30.814-30.822H30.83C13.813,9.81,0,23.607,0,40.633V356.27
		c0,17.026,13.813,30.813,30.83,30.813h200.53C248.395,387.083,262.174,373.296,262.174,356.27z M185.773,43.643h28.52
		c9.748,0.009,17.641,7.901,17.624,17.642l0.016,28.52h-6.712l-0.018-18.122l-21.317-21.318h-18.114V43.643z M30.273,61.284
		c0-9.74,7.893-17.633,17.624-17.633h28.52v6.712H58.304L36.986,71.698v18.106h-6.713V61.284z M47.881,353.252
		c-9.715-0.008-17.624-7.893-17.608-17.633L30.257,307.1h6.712v18.113l21.335,21.326h18.114v6.713H47.881z M177.391,232.621
		c-2.9-3.424-6.392-5.524-10.001-6.789c-1.669,2.589-3.575,5.026-5.7,7.235c10.929,16.899-2.496,32.315,13.914,42.67
		 M214.293,353.243h-28.52v-6.704h18.114l21.317-21.335V307.1h6.713v28.519C231.918,345.358,224.042,353.243,214.293,353.243z" style="fill: rgb(75, 75, 75);"></path>
	<text x="128" y="220" text-anchor="middle" font-size="64" font-family="Arial, sans-serif" fill="#E11D48" font-weight="bold">TALK</text>
</g>
</svg>
